<?xml version="1.0" encoding="UTF-8" standalone="no"?>
<!-- Uploaded to: SVG Repo, www.svgrepo.com, Generator: SVG Repo Mixer Tools -->

<svg
   height="800px"
   width="800px"
   version="1.1"
   id="_x32_"
   viewBox="0 0 512 512"
   xml:space="preserve"
   sodipodi:docname="favicon.svg"
   inkscape:version="1.2.2 (b0a8486541, 2022-12-01)"
   xmlns:inkscape="http://www.inkscape.org/namespaces/inkscape"
   xmlns:sodipodi="http://sodipodi.sourceforge.net/DTD/sodipodi-0.dtd"
   xmlns="http://www.w3.org/2000/svg"
   xmlns:svg="http://www.w3.org/2000/svg"><defs
   id="defs145" /><sodipodi:namedview
   id="namedview143"
   pagecolor="#505050"
   bordercolor="#eeeeee"
   borderopacity="1"
   inkscape:showpageshadow="0"
   inkscape:pageopacity="0"
   inkscape:pagecheckerboard="0"
   inkscape:deskcolor="#505050"
   showgrid="false"
   inkscape:zoom="0.9475"
   inkscape:cx="398.41689"
   inkscape:cy="392.61214"
   inkscape:window-width="1920"
   inkscape:window-height="961"
   inkscape:window-x="0"
   inkscape:window-y="0"
   inkscape:window-maximized="1"
   inkscape:current-layer="_x32_" />
<style
   type="text/css"
   id="style132">
	.st0{fill:#000000;}
</style>
<rect
   style="fill:#8d6ff5;fill-opacity:1;stroke:none;stroke-width:2.4189;stroke-linecap:round;stroke-linejoin:round;stroke-opacity:1"
   id="rect294"
   width="513.20935"
   height="481.75198"
   x="-0.60467529"
   y="15.124013"
   rx="71.041084"
   ry="68.656883" /><g
   id="g2461"
   transform="matrix(1.1055155,0,0,1.1055155,-23.829024,-22.544068)"
   style="stroke-width:0.904556"><g
     id="g140"
     transform="matrix(-0.82407628,0,0,0.82407628,474.42536,31.842227)"
     style="stroke-width:1.09766">
	<path
   class="st0"
   d="m 478.96854,93.29872 c -19.625,-19.642 -46.892,-31.84 -76.859,-31.831 h -192.352 c -35.136,-0.009 -67.098,14.289 -90.106,37.332 -23.044003,23.008 -37.341003,54.97 -37.332003,90.116 v 25.498 102.581 c 0,8.068 0,16.137 0,24.206 0,3.453 -0.252,6.576 -0.772,9.257 -0.79,4.051 -2.056,6.975 -4.06,9.518 -2.039,2.533 -5.032,5.023 -10.68,7.348 -0.512,0.2 -0.945,0.295 -1.675,0.304 -1.076,0.009 -2.897,-0.33 -5.136,-1.31 -2.238,-0.963 -4.824,-2.507 -7.296,-4.329 -3.201,-2.351 -7.244,-3.323 -11.174,-2.689 -3.93,0.633 -7.453,2.828 -9.76,6.064 l -30.2089996,42.46 c -4.737,6.663 -3.244,15.86 3.366,20.675 11.9379996,8.684 25.5069996,15.096 39.6999996,19.381 14.203,4.278 29.047,6.428 43.692,6.437 14.280003,-0.009 28.370003,-2.056 41.470003,-6.402 13.092,-4.346 25.247,-11.027 35.206,-20.466 1.353,-1.284 2.62,-2.62 3.852,-3.99 v 34.4 c 0,3.912 1.579,7.756 4.355,10.523 2.776,2.776 6.611,4.364 10.533,4.364 h 42.52 36.69 c 3.921,0 7.756,-1.587 10.523,-4.364 2.768,-2.768 4.364,-6.611 4.364,-10.523 v -64.004 h 115.805 v 64.001 c 0,3.912 1.596,7.756 4.364,10.523 2.767,2.776 6.602,4.364 10.524,4.364 h 87.382 c 3.922,0 7.757,-1.587 10.533,-4.364 2.776,-2.768 4.355,-6.611 4.355,-10.523 v -287.698 c 0.017,-29.967 -12.182,-57.235 -31.823,-76.859 z m 2.046,349.66 h -57.599 v -64.001 c 0,-3.921 -1.588,-7.756 -4.364,-10.524 -2.768,-2.776 -6.611,-4.364 -10.532,-4.364 h -145.579 c -3.922,0 -7.766,1.588 -10.533,4.364 -2.776,2.768 -4.364,6.603 -4.364,10.524 v 64.001 h -21.793 -27.633 v -99.233 c 0.902,-7.036 1.405,-13.153 1.683,-17.699 0.156,-2.36 0.243,-4.294 0.286,-5.744 0.026,-0.728 0.043,-1.327 0.06,-1.804 0,-0.486 0.009,-0.79 0.009,-1.119 l -0.009,-0.382 c 0,-0.113 0,-0.217 -0.017,-0.546 -0.018,-0.191 -0.018,-0.373 -0.087,-0.998 -0.052,-0.356 -0.078,-0.729 -0.364,-1.892 -0.078,-0.304 -0.173,-0.668 -0.346,-1.154 -0.296,-0.763 -0.591,-1.761 -1.892,-3.678 -0.686,-0.954 -1.666,-2.213 -3.584,-3.592 -0.954,-0.677 -2.169,-1.362 -3.643,-1.883 -1.467,-0.52 -3.202,-0.85 -4.954,-0.85 -1.944,-0.009 -3.835,0.408 -5.388,1.014 -1.553,0.599 -2.768,1.371 -3.705,2.091 -1.874,1.475 -2.742,2.715 -3.366,3.634 -0.599,0.928 -0.92,1.597 -1.162,2.144 -0.46,1.067 -0.616,1.657 -0.746,2.125 -0.243,0.885 -0.278,1.267 -0.338,1.588 -0.095,0.582 -0.104,0.79 -0.122,0.99 -0.026,0.33 -0.035,0.442 -0.044,0.555 -0.017,0.346 -0.017,0.408 -0.017,0.528 0,0.26 0,0.555 -0.009,0.946 -0.009,0.616 -0.044,1.604 -0.104,2.924 -0.321,7.279 -1.588,24.205 -5.683,41.557 -2.039,8.667 -4.788,17.42 -8.285,25.03 -3.479,7.626 -7.721,14.02 -12.294,18.323 -6.212,5.9 -14.437,10.61 -24.102,13.821 -9.647,3.21 -20.674003,4.885 -32.083003,4.876 -11.695,0.009 -23.763,-1.753 -35.094,-5.17 -6.35,-1.909 -12.414,-4.399 -18.123,-7.305 l 13.082,-18.402 c 4.946,2.126 10.602,3.739 16.952,3.748 4.165,0.008 8.624,-0.755 12.884,-2.49 6.342,-2.576 11.904,-5.891 16.545,-9.916 7.002003,-6.012 11.678003,-13.63 14.228003,-21.273 2.586,-7.67 3.297,-15.296 3.315,-22.522 0,-8.069 0,-16.137 0,-24.206 v -102.582 -25.498 c 0,-27.016 10.896,-51.343 28.595,-69.059 17.725,-17.699 42.043,-28.605 69.059,-28.605 h 192.351 c 21.837,0 41.47,8.806 55.794,23.104 14.306,14.333 23.104,33.958 23.112,55.803 v 272.801 z"
   id="path134"
   style="stroke-width:1.09766" />
	<path
   class="st0"
   d="m 180.758,183.796 c -10.272,0 -18.61,8.329 -18.61,18.618 0,10.282 8.338,18.61 18.61,18.61 10.281,0 18.619,-8.328 18.619,-18.61 0,-10.29 -8.338,-18.618 -18.619,-18.618 z"
   id="path136"
   style="stroke-width:1.09766" />
	<path
   class="st0"
   d="m 346.206,192.481 c -3.661,0 -6.619,2.966 -6.619,6.62 -0.009,27.433 -11.096,52.21 -29.073,70.195 -17.985,17.977 -42.763,29.073 -70.196,29.073 -3.652,0 -6.62,2.967 -6.62,6.62 0,3.653 2.968,6.619 6.62,6.619 62.136,-0.008 112.499,-50.371 112.499,-112.507 -0.001,-3.654 -2.959,-6.62 -6.611,-6.62 z"
   id="path138"
   style="stroke-width:1.09766" />
</g></g>
</svg>
